<svg width="254" height="52" viewBox="0 0 254 52" fill="none" xmlns="http://www.w3.org/2000/svg">
<path d="M69.03 30.15L72.66 20.16H72.72L76.29 30.15H69.03ZM71.16 17.58L62.82 39H65.73L68.13 32.55H77.19L79.53 39H82.68L74.31 17.58H71.16ZM94.9031 28.47H97.5431C97.4431 27.55 97.2031 26.76 96.8231 26.1C96.4431 25.42 95.9531 24.86 95.3531 24.42C94.7731 23.98 94.0931 23.66 93.3131 23.46C92.5531 23.24 91.7331 23.13 90.8531 23.13C89.6331 23.13 88.5631 23.35 87.6431 23.79C86.7231 24.21 85.9531 24.8 85.3331 25.56C84.7331 26.3 84.2831 27.18 83.9831 28.2C83.6831 29.2 83.5331 30.28 83.5331 31.44C83.5331 32.6 83.6831 33.67 83.9831 34.65C84.3031 35.61 84.7631 36.44 85.3631 37.14C85.9831 37.84 86.7431 38.38 87.6431 38.76C88.5631 39.14 89.6131 39.33 90.7931 39.33C92.7731 39.33 94.3331 38.81 95.4731 37.77C96.6331 36.73 97.3531 35.25 97.6331 33.33H95.0231C94.8631 34.53 94.4231 35.46 93.7031 36.12C93.0031 36.78 92.0231 37.11 90.7631 37.11C89.9631 37.11 89.2731 36.95 88.6931 36.63C88.1131 36.31 87.6431 35.89 87.2831 35.37C86.9231 34.83 86.6531 34.22 86.4731 33.54C86.3131 32.86 86.2331 32.16 86.2331 31.44C86.2331 30.66 86.3131 29.91 86.4731 29.19C86.6331 28.45 86.8931 27.8 87.2531 27.24C87.6331 26.68 88.1331 26.23 88.7531 25.89C89.3731 25.55 90.1431 25.38 91.0631 25.38C92.1431 25.38 93.0031 25.65 93.6431 26.19C94.2831 26.73 94.7031 27.49 94.9031 28.47ZM104.026 23.49V18.84H101.476V23.49H98.8364V25.74H101.476V35.61C101.476 36.33 101.546 36.91 101.686 37.35C101.826 37.79 102.036 38.13 102.316 38.37C102.616 38.61 102.996 38.78 103.456 38.88C103.936 38.96 104.506 39 105.166 39H107.116V36.75H105.946C105.546 36.75 105.216 36.74 104.956 36.72C104.716 36.68 104.526 36.61 104.386 36.51C104.246 36.41 104.146 36.27 104.086 36.09C104.046 35.91 104.026 35.67 104.026 35.37V25.74H107.116V23.49H104.026ZM112.649 20.7V17.58H110.099V20.7H112.649ZM110.099 23.49V39H112.649V23.49H110.099ZM123.59 39L129.26 23.49H126.59L122.36 36.42H122.3L117.95 23.49H115.1L120.86 39H123.59ZM142.37 29.76H133.46C133.5 29.16 133.63 28.6 133.85 28.08C134.07 27.54 134.37 27.07 134.75 26.67C135.13 26.27 135.58 25.96 136.1 25.74C136.64 25.5 137.24 25.38 137.9 25.38C138.54 25.38 139.12 25.5 139.64 25.74C140.18 25.96 140.64 26.27 141.02 26.67C141.42 27.05 141.73 27.51 141.95 28.05C142.19 28.59 142.33 29.16 142.37 29.76ZM144.83 34.08H142.31C142.09 35.1 141.63 35.86 140.93 36.36C140.25 36.86 139.37 37.11 138.29 37.11C137.45 37.11 136.72 36.97 136.1 36.69C135.48 36.41 134.97 36.04 134.57 35.58C134.17 35.1 133.88 34.56 133.7 33.96C133.52 33.34 133.44 32.69 133.46 32.01H145.07C145.11 31.07 145.02 30.08 144.8 29.04C144.6 28 144.22 27.04 143.66 26.16C143.12 25.28 142.39 24.56 141.47 24C140.57 23.42 139.43 23.13 138.05 23.13C136.99 23.13 136.01 23.33 135.11 23.73C134.23 24.13 133.46 24.69 132.8 25.41C132.16 26.13 131.66 26.98 131.3 27.96C130.94 28.94 130.76 30.02 130.76 31.2C130.8 32.38 130.97 33.47 131.27 34.47C131.59 35.47 132.06 36.33 132.68 37.05C133.3 37.77 134.06 38.33 134.96 38.73C135.88 39.13 136.96 39.33 138.2 39.33C139.96 39.33 141.42 38.89 142.58 38.01C143.74 37.13 144.49 35.82 144.83 34.08Z" fill="#2A4365"/>
<path d="M152.81 21.54V39H157.52V21.54H163.94V17.58H146.39V21.54H152.81ZM163.206 23.49V39H167.466V32.01C167.466 31.31 167.536 30.66 167.676 30.06C167.816 29.46 168.046 28.94 168.366 28.5C168.706 28.04 169.146 27.68 169.686 27.42C170.226 27.16 170.886 27.03 171.666 27.03C171.926 27.03 172.196 27.05 172.476 27.09C172.756 27.11 172.996 27.14 173.196 27.18V23.22C172.856 23.12 172.546 23.07 172.266 23.07C171.726 23.07 171.206 23.15 170.706 23.31C170.206 23.47 169.736 23.7 169.296 24C168.856 24.28 168.466 24.63 168.126 25.05C167.786 25.45 167.516 25.89 167.316 26.37H167.256V23.49H163.206ZM174.686 28.26C174.746 27.26 174.996 26.43 175.436 25.77C175.876 25.11 176.436 24.58 177.116 24.18C177.796 23.78 178.556 23.5 179.396 23.34C180.256 23.16 181.116 23.07 181.976 23.07C182.756 23.07 183.546 23.13 184.346 23.25C185.146 23.35 185.876 23.56 186.536 23.88C187.196 24.2 187.736 24.65 188.156 25.23C188.576 25.79 188.786 26.54 188.786 27.48V35.55C188.786 36.25 188.826 36.92 188.906 37.56C188.986 38.2 189.126 38.68 189.326 39H185.006C184.926 38.76 184.856 38.52 184.796 38.28C184.756 38.02 184.726 37.76 184.706 37.5C184.026 38.2 183.226 38.69 182.306 38.97C181.386 39.25 180.446 39.39 179.486 39.39C178.746 39.39 178.056 39.3 177.416 39.12C176.776 38.94 176.216 38.66 175.736 38.28C175.256 37.9 174.876 37.42 174.596 36.84C174.336 36.26 174.206 35.57 174.206 34.77C174.206 33.89 174.356 33.17 174.656 32.61C174.976 32.03 175.376 31.57 175.856 31.23C176.356 30.89 176.916 30.64 177.536 30.48C178.176 30.3 178.816 30.16 179.456 30.06C180.096 29.96 180.726 29.88 181.346 29.82C181.966 29.76 182.516 29.67 182.996 29.55C183.476 29.43 183.856 29.26 184.136 29.04C184.416 28.8 184.546 28.46 184.526 28.02C184.526 27.56 184.446 27.2 184.286 26.94C184.146 26.66 183.946 26.45 183.686 26.31C183.446 26.15 183.156 26.05 182.816 26.01C182.496 25.95 182.146 25.92 181.766 25.92C180.926 25.92 180.266 26.1 179.786 26.46C179.306 26.82 179.026 27.42 178.946 28.26H174.686ZM184.526 31.41C184.346 31.57 184.116 31.7 183.836 31.8C183.576 31.88 183.286 31.95 182.966 32.01C182.666 32.07 182.346 32.12 182.006 32.16C181.666 32.2 181.326 32.25 180.986 32.31C180.666 32.37 180.346 32.45 180.026 32.55C179.726 32.65 179.456 32.79 179.216 32.97C178.996 33.13 178.816 33.34 178.676 33.6C178.536 33.86 178.466 34.19 178.466 34.59C178.466 34.97 178.536 35.29 178.676 35.55C178.816 35.81 179.006 36.02 179.246 36.18C179.486 36.32 179.766 36.42 180.086 36.48C180.406 36.54 180.736 36.57 181.076 36.57C181.916 36.57 182.566 36.43 183.026 36.15C183.486 35.87 183.826 35.54 184.046 35.16C184.266 34.76 184.396 34.36 184.436 33.96C184.496 33.56 184.526 33.24 184.526 33V31.41ZM202.653 28.95H206.823C206.763 27.95 206.523 27.09 206.103 26.37C205.683 25.63 205.133 25.02 204.453 24.54C203.793 24.04 203.033 23.67 202.173 23.43C201.333 23.19 200.453 23.07 199.533 23.07C198.273 23.07 197.153 23.28 196.173 23.7C195.193 24.12 194.363 24.71 193.683 25.47C193.003 26.21 192.483 27.1 192.123 28.14C191.783 29.16 191.613 30.27 191.613 31.47C191.613 32.63 191.803 33.7 192.183 34.68C192.563 35.64 193.093 36.47 193.773 37.17C194.453 37.87 195.273 38.42 196.233 38.82C197.213 39.2 198.283 39.39 199.443 39.39C201.503 39.39 203.193 38.85 204.513 37.77C205.833 36.69 206.633 35.12 206.913 33.06H202.803C202.663 34.02 202.313 34.79 201.753 35.37C201.213 35.93 200.433 36.21 199.413 36.21C198.753 36.21 198.193 36.06 197.733 35.76C197.273 35.46 196.903 35.08 196.623 34.62C196.363 34.14 196.173 33.61 196.053 33.03C195.933 32.45 195.873 31.88 195.873 31.32C195.873 30.74 195.933 30.16 196.053 29.58C196.173 28.98 196.373 28.44 196.653 27.96C196.953 27.46 197.333 27.06 197.793 26.76C198.253 26.44 198.823 26.28 199.503 26.28C201.323 26.28 202.373 27.17 202.653 28.95ZM209.709 17.58V39H213.969V33.66L215.619 32.07L219.879 39H225.039L218.529 29.19L224.379 23.49H219.339L213.969 29.07V17.58H209.709ZM236.986 29.58H230.056C230.076 29.28 230.136 28.94 230.236 28.56C230.356 28.18 230.546 27.82 230.806 27.48C231.086 27.14 231.446 26.86 231.886 26.64C232.346 26.4 232.916 26.28 233.596 26.28C234.636 26.28 235.406 26.56 235.906 27.12C236.426 27.68 236.786 28.5 236.986 29.58ZM230.056 32.28H241.246C241.326 31.08 241.226 29.93 240.946 28.83C240.666 27.73 240.206 26.75 239.566 25.89C238.946 25.03 238.146 24.35 237.166 23.85C236.186 23.33 235.036 23.07 233.716 23.07C232.536 23.07 231.456 23.28 230.476 23.7C229.516 24.12 228.686 24.7 227.986 25.44C227.286 26.16 226.746 27.02 226.366 28.02C225.986 29.02 225.796 30.1 225.796 31.26C225.796 32.46 225.976 33.56 226.336 34.56C226.716 35.56 227.246 36.42 227.926 37.14C228.606 37.86 229.436 38.42 230.416 38.82C231.396 39.2 232.496 39.39 233.716 39.39C235.476 39.39 236.976 38.99 238.216 38.19C239.456 37.39 240.376 36.06 240.976 34.2H237.226C237.086 34.68 236.706 35.14 236.086 35.58C235.466 36 234.726 36.21 233.866 36.21C232.666 36.21 231.746 35.9 231.106 35.28C230.466 34.66 230.116 33.66 230.056 32.28ZM243.772 23.49V39H248.032V32.01C248.032 31.31 248.102 30.66 248.242 30.06C248.382 29.46 248.612 28.94 248.932 28.5C249.272 28.04 249.712 27.68 250.252 27.42C250.792 27.16 251.452 27.03 252.232 27.03C252.492 27.03 252.762 27.05 253.042 27.09C253.322 27.11 253.562 27.14 253.762 27.18V23.22C253.422 23.12 253.112 23.07 252.832 23.07C252.292 23.07 251.772 23.15 251.272 23.31C250.772 23.47 250.302 23.7 249.862 24C249.422 24.28 249.032 24.63 248.692 25.05C248.352 25.45 248.082 25.89 247.882 26.37H247.822V23.49H243.772Z" fill="#2A4365"/>
<path d="M44.8353 28.5202C44.5003 30.9856 43.3552 33.1941 41.6863 34.8764C39.6763 36.8953 36.8989 38.1433 33.8351 38.1433C32.9459 38.1433 32.0749 38.0393 31.2465 37.8374L25.6916 47.0261C24.8267 48.4576 22.9689 48.9164 21.5437 48.0477C20.1184 47.179 19.6616 45.3131 20.5265 43.8816L25.9779 34.8642C23.9739 32.8454 22.7375 30.0618 22.7375 26.9908C22.7375 26.4708 22.774 25.9569 22.841 25.4553C24.114 26.0058 25.454 26.4769 26.7819 26.8623V26.9908C26.7819 28.9484 27.5737 30.7226 28.8467 32.0011C30.1258 33.2859 31.886 34.075 33.8351 34.075C35.7842 34.075 37.5506 33.2797 38.8236 32.0011C39.6885 31.1324 40.328 30.0435 40.6509 28.8261C42.003 28.8077 43.3369 28.7221 44.6221 28.5508L44.8292 28.5202H44.8353Z" fill="#2C5282"/>
<path fill-rule="evenodd" clip-rule="evenodd" d="M28.3715 7.30432C30.2901 7.30432 31.283 9.32314 34.3102 9.32314C37.3373 9.32314 38.5494 7.30432 40.7604 7.30432C42.2162 7.30432 43.0811 8.54009 43.4039 9.95938C43.8485 11.8926 44.2262 14.5109 45.2677 17.4535C45.9438 17.7288 46.5833 18.0224 47.1681 18.3161C50.0856 19.8027 51.852 21.5462 51.5901 23.1735C51.3099 24.8987 48.8248 26.1161 45.0058 26.6238C41.1259 27.1439 36.0582 26.9114 30.9358 25.8408C26.0021 24.8069 22.1466 23.2224 19.9051 21.5523C17.7916 19.9801 17.1277 18.3467 18.2423 16.9947C19.29 15.7283 21.7446 14.8963 24.8814 14.5476C25.2895 12.9876 25.4296 11.4215 25.722 9.95938C26.0143 8.52785 26.9097 7.30432 28.3654 7.30432H28.3715ZM45.8281 21.4055C43.1602 21.901 40.5655 21.9928 37.8794 21.8399C35.4552 21.7053 32.8849 21.3688 30.2962 20.8304C27.7563 20.2982 26.0813 19.6987 23.9678 18.83C23.0298 18.4446 23.2612 18.0775 23.4683 17.7471C23.7485 17.2883 24.0531 16.7377 24.3028 16.2483C29.6201 18.0408 38.7565 20.0719 45.5844 18.677C45.8646 19.301 46.1935 19.9556 46.425 20.5919C46.5407 20.9222 46.6625 21.2464 45.8281 21.3994V21.4055Z" fill="#2C5282"/>
</svg>
