<svg viewBox="0 0 20 20" class="fill-current" xmlns="http://www.w3.org/2000/svg">
<g clip-path="url(#clip0)">
<path d="M17.2129 0.491016L17.3691 3.72422C16.4616 2.65361 15.3315 1.79374 14.0577 1.20452C12.7839 0.615293 11.3969 0.310885 9.99336 0.3125C5.26289 0.3125 1.32461 3.70781 0.480078 8.19609C0.467585 8.26372 0.470125 8.33326 0.487517 8.3998C0.504909 8.46633 0.536728 8.52823 0.580716 8.58109C0.624705 8.63395 0.679786 8.67648 0.742052 8.70567C0.804319 8.73486 0.872246 8.75 0.941016 8.75H2.85703C2.96266 8.74989 3.06515 8.7141 3.14789 8.64845C3.23063 8.58279 3.28877 8.49112 3.31289 8.38828C3.62536 7.09147 4.30853 5.91365 5.27905 4.99851C6.24956 4.08338 7.46545 3.47052 8.77836 3.23469C10.0913 2.99886 11.4444 3.15027 12.6728 3.67044C13.9011 4.19062 14.9515 5.05706 15.6957 6.16406L11.7324 5.97422C11.669 5.9712 11.6057 5.9811 11.5462 6.0033C11.4867 6.0255 11.4324 6.05955 11.3865 6.10338C11.3406 6.14722 11.304 6.19992 11.2791 6.25829C11.2542 6.31666 11.2413 6.37949 11.2414 6.44297V8.29492C11.2414 8.41924 11.2908 8.53847 11.3787 8.62638C11.4666 8.71429 11.5858 8.76367 11.7102 8.76367H19.5312C19.6556 8.76367 19.7748 8.71429 19.8627 8.62638C19.9506 8.53847 20 8.41924 20 8.29492V0.46875C20 0.34443 19.9506 0.225201 19.8627 0.137294C19.7748 0.049386 19.6556 0 19.5312 0L17.6809 0C17.6174 3.41084e-05 17.5547 0.0129334 17.4964 0.0379174C17.4381 0.0629013 17.3855 0.0994504 17.3418 0.145353C17.298 0.191255 17.2641 0.245556 17.2419 0.304971C17.2197 0.364385 17.2099 0.427677 17.2129 0.491016ZM9.99336 16.875C8.86623 16.876 7.75623 16.5992 6.76151 16.0691C5.76679 15.5391 4.91802 14.7721 4.29023 13.8359L8.2668 14.0262C8.3302 14.0292 8.39356 14.0193 8.45302 13.9971C8.51249 13.9749 8.56683 13.9408 8.61274 13.897C8.65866 13.8532 8.69519 13.8005 8.72013 13.7421C8.74506 13.6837 8.75788 13.6209 8.75781 13.5574V11.7059C8.75781 11.5815 8.70843 11.4623 8.62052 11.3744C8.53261 11.2865 8.41338 11.2371 8.28906 11.2371H0.46875C0.34443 11.2371 0.225201 11.2865 0.137294 11.3744C0.049386 11.4623 0 11.5815 0 11.7059L0 19.5312C0 19.6556 0.049386 19.7748 0.137294 19.8627C0.225201 19.9506 0.34443 20 0.46875 20H2.31836C2.38194 20.0001 2.44487 19.9872 2.50333 19.9622C2.56178 19.9372 2.61454 19.9006 2.65839 19.8545C2.70223 19.8085 2.73626 19.754 2.75839 19.6944C2.78052 19.6348 2.79029 19.5713 2.78711 19.5078L2.625 16.2824C3.53238 17.3508 4.66153 18.2089 5.93397 18.7969C7.2064 19.3849 8.59162 19.6888 9.99336 19.6875C14.7242 19.6875 18.6625 16.2922 19.507 11.8039C19.5195 11.7363 19.517 11.6667 19.4996 11.6002C19.4822 11.5337 19.4504 11.4718 19.4064 11.4189C19.3624 11.3661 19.3073 11.3235 19.2451 11.2943C19.1828 11.2651 19.1149 11.25 19.0461 11.25H17.1301C17.0245 11.2501 16.922 11.2859 16.8392 11.3516C16.7565 11.4172 16.6983 11.5089 16.6742 11.6117C16.3135 13.1118 15.4582 14.4468 14.2463 15.4016C13.0343 16.3564 11.5362 16.8754 9.99336 16.875Z"/>
</g>
<defs>
<clipPath id="clip0">
<rect width="20" height="20" fill="white"/>
</clipPath>
</defs>
</svg>
